<svg id="Layer_1" enable-background="new 0 0 256 256" height="512" viewBox="0 0 256 256" width="512" xmlns="http://www.w3.org/2000/svg"><g><g><path d="m241.395 128c0 8.14-14.74 14.514-16.471 22.13-1.787 7.864 8.685 19.99 5.262 27.084-3.479 7.212-19.523 6.561-24.469 12.756-4.97 6.225-.787 21.717-7.012 26.687-6.194 4.946-20.363-2.56-27.575.919-7.095 3.423-10.034 19.212-17.897 20.999-7.616 1.731-17.093-11.181-25.233-11.181s-17.617 12.912-25.233 11.181c-7.864-1.787-10.803-17.576-17.898-20.999-7.212-3.479-21.38 4.027-27.575-.92-6.225-4.97-2.041-20.463-7.011-26.687-4.946-6.194-20.99-5.544-24.469-12.756-3.423-7.095 7.049-19.22 5.262-27.084-1.731-7.616-16.471-13.99-16.471-22.13s14.74-14.514 16.471-22.13c1.787-7.864-8.685-19.99-5.262-27.084 3.479-7.212 19.523-6.561 24.469-12.756 4.97-6.225.787-21.717 7.012-26.687 6.194-4.946 20.363 2.56 27.575-.919 7.095-3.423 10.034-19.212 17.897-20.999 7.616-1.731 17.093 11.181 25.233 11.181s17.617-12.912 25.233-11.181c7.864 1.787 10.803 17.576 17.898 20.999 7.212 3.479 21.38-4.027 27.575.92 6.225 4.97 2.041 20.463 7.011 26.687 4.946 6.194 20.99 5.544 24.469 12.756 3.423 7.095-7.049 19.22-5.262 27.084 1.731 7.616 16.471 13.99 16.471 22.13z" fill="#4671c6"/></g><g><path d="m151.779 240.735c-4.268 0-8.602-3.018-12.812-5.949-3.808-2.651-7.745-5.392-10.967-5.392s-7.16 2.741-10.967 5.392c-4.835 3.366-9.835 6.847-14.709 5.739-5.074-1.153-8.131-6.582-11.087-11.831-2.215-3.933-4.505-7.999-7.236-9.317-2.815-1.358-7.491-.613-12.013.11-5.881.939-11.961 1.911-15.941-1.268-4.002-3.196-4.403-9.36-4.791-15.322-.296-4.552-.602-9.259-2.536-11.681-1.916-2.399-6.418-3.734-10.772-5.024-5.75-1.704-11.694-3.466-13.935-8.11-2.197-4.554.096-10.241 2.314-15.741 1.721-4.267 3.5-8.68 2.798-11.769-.662-2.911-4.091-6.026-7.407-9.038-4.48-4.069-9.113-8.278-9.113-13.535s4.633-9.466 9.113-13.535c3.316-3.012 6.746-6.127 7.407-9.038.702-3.089-1.078-7.501-2.798-11.769-2.218-5.5-4.512-11.188-2.314-15.741 2.241-4.644 8.186-6.406 13.935-8.11 4.354-1.291 8.857-2.625 10.773-5.024 1.934-2.422 2.24-7.129 2.536-11.681.388-5.961.789-12.125 4.791-15.322 3.98-3.178 10.062-2.206 15.94-1.267 4.521.721 9.196 1.469 12.013.11 2.731-1.318 5.021-5.384 7.236-9.317 2.957-5.25 6.014-10.678 11.087-11.831 4.876-1.108 9.874 2.373 14.709 5.739 3.808 2.651 7.745 5.392 10.967 5.392s7.16-2.741 10.967-5.392c4.835-3.366 9.838-6.846 14.709-5.739 5.074 1.153 8.131 6.582 11.087 11.831 2.215 3.933 4.505 7.999 7.236 9.317 2.817 1.359 7.493.613 12.013-.11 5.881-.938 11.961-1.91 15.941 1.268 4.002 3.196 4.403 9.36 4.791 15.322.296 4.552.602 9.259 2.536 11.681 1.916 2.399 6.418 3.734 10.772 5.024 5.75 1.704 11.694 3.466 13.935 8.11 2.197 4.554-.096 10.241-2.314 15.741-1.721 4.267-3.5 8.68-2.798 11.769.662 2.911 4.091 6.026 7.407 9.038 4.48 4.069 9.113 8.278 9.113 13.535s-4.633 9.466-9.113 13.535c-3.316 3.012-6.746 6.127-7.407 9.038-.702 3.089 1.078 7.501 2.798 11.769 2.218 5.5 4.512 11.188 2.314 15.741-2.241 4.644-8.186 6.406-13.935 8.11-4.354 1.291-8.857 2.625-10.773 5.024-1.934 2.422-2.24 7.129-2.536 11.681-.388 5.961-.789 12.125-4.791 15.322-3.98 3.178-10.062 2.206-15.94 1.267-4.521-.722-9.197-1.471-12.013-.11-2.731 1.318-5.021 5.384-7.236 9.317-2.957 5.25-6.014 10.678-11.087 11.831-.63.144-1.263.21-1.897.21zm-23.779-15.34c4.478 0 8.939 3.106 13.253 6.109 4.122 2.87 8.383 5.841 11.537 5.121 3.345-.76 5.96-5.403 8.489-9.894 2.518-4.471 5.121-9.093 8.983-10.957 3.948-1.905 9.252-1.057 14.382-.238 5.022.803 10.215 1.633 12.813-.443 2.621-2.093 2.964-7.361 3.295-12.455.336-5.169.684-10.513 3.401-13.917 2.7-3.381 7.815-4.897 12.762-6.363 4.915-1.457 9.997-2.963 11.469-6.013 1.428-2.96-.529-7.813-2.421-12.507-1.952-4.839-3.969-9.842-2.989-14.152.94-4.139 4.844-7.684 8.618-11.112 3.836-3.484 7.803-7.087 7.803-10.574s-3.967-7.09-7.803-10.574c-3.774-3.428-7.678-6.974-8.618-11.112-.98-4.31 1.038-9.313 2.989-14.151 1.893-4.693 3.85-9.546 2.421-12.506-1.471-3.05-6.554-4.557-11.469-6.014-4.947-1.466-10.062-2.982-12.762-6.363-2.718-3.404-3.065-8.749-3.401-13.917-.331-5.094-.674-10.362-3.295-12.455-2.598-2.075-7.79-1.246-12.813-.443-5.131.819-10.436 1.666-14.382-.238-3.862-1.863-6.465-6.486-8.983-10.957-2.529-4.49-5.144-9.133-8.489-9.894-3.148-.715-7.415 2.251-11.537 5.121-4.314 3.003-8.775 6.109-13.253 6.109s-8.939-3.106-13.253-6.109c-4.122-2.87-8.385-5.837-11.537-5.121-3.345.76-5.96 5.403-8.489 9.894-2.518 4.471-5.121 9.093-8.983 10.957-3.948 1.905-9.253 1.057-14.382.238-5.021-.802-10.215-1.632-12.813.443-2.621 2.093-2.964 7.361-3.295 12.455-.336 5.169-.684 10.513-3.401 13.917-2.7 3.381-7.815 4.897-12.762 6.363-4.915 1.457-9.997 2.963-11.469 6.013-1.428 2.96.529 7.813 2.421 12.507 1.952 4.839 3.969 9.842 2.989 14.152-.94 4.139-4.844 7.684-8.618 11.112-3.836 3.484-7.803 7.087-7.803 10.574s3.967 7.09 7.803 10.574c3.774 3.428 7.678 6.974 8.618 11.112.98 4.31-1.038 9.313-2.989 14.151-1.893 4.693-3.85 9.546-2.421 12.506 1.471 3.05 6.554 4.557 11.469 6.014 4.947 1.466 10.062 2.982 12.762 6.363 2.718 3.404 3.065 8.749 3.401 13.917.331 5.094.674 10.362 3.295 12.455 2.599 2.076 7.792 1.246 12.813.443 5.131-.82 10.435-1.667 14.382.238 3.862 1.863 6.465 6.486 8.983 10.957 2.529 4.49 5.144 9.133 8.489 9.894 3.147.721 7.415-2.251 11.537-5.121 4.314-3.004 8.775-6.109 13.253-6.109z" fill="#3762cc"/></g><g><circle cx="128" cy="128" fill="#a4c9ff" r="85.951"/></g><g><path d="m128 215.951c-48.496 0-87.951-39.455-87.951-87.951s39.455-87.951 87.951-87.951 87.951 39.455 87.951 87.951-39.455 87.951-87.951 87.951zm0-171.902c-46.291 0-83.951 37.66-83.951 83.951s37.66 83.951 83.951 83.951 83.951-37.66 83.951-83.951-37.66-83.951-83.951-83.951z" fill="#3762cc"/></g><g><path d="m243.906 144.496-231.811-.001c-3.073 0-5.048 3.263-3.622 5.985l9.672 18.471c.622 1.188.622 2.605 0 3.793l-9.672 18.471c-1.426 2.722.549 5.985 3.622 5.985l231.811.001c3.073 0 5.048-3.263 3.622-5.985l-9.672-18.471c-.622-1.188-.622-2.605 0-3.793l9.672-18.471c1.425-2.721-.549-5.985-3.622-5.985z" fill="#f9a7a7"/></g><g><path d="m68.824 169.771c-.995-.706-2.215-1.313-3.625-1.804-1.38-.48-2.943-.926-4.637-1.323-1.367-.345-2.311-.598-2.885-.771-.55-.167-1.104-.401-1.644-.697-.508-.278-.909-.61-1.191-.987-.263-.352-.391-.762-.391-1.256 0-.805.404-1.485 1.234-2.081.872-.624 2.051-.94 3.507-.94 1.564 0 2.696.281 3.365.836.705.585 1.322 1.421 1.844 2.501.452.847.868 1.447 1.271 1.834.457.439 1.107.662 1.933.662.911 0 1.681-.35 2.289-1.039.592-.671.893-1.44.893-2.286 0-.865-.224-1.759-.666-2.656-.438-.89-1.134-1.746-2.068-2.544-.931-.794-2.112-1.438-3.511-1.915-1.39-.472-3.052-.712-4.94-.712-2.36 0-4.448.36-6.206 1.07-1.788.722-3.178 1.777-4.131 3.134-.957 1.362-1.442 2.94-1.442 4.688 0 1.833.463 3.396 1.375 4.645.899 1.23 2.128 2.213 3.652 2.922 1.477.686 3.331 1.293 5.514 1.804 1.586.363 2.868.71 3.809 1.03.882.301 1.608.738 2.158 1.299.517.529.769 1.208.769 2.076 0 1.099-.487 1.995-1.488 2.741-1.033.77-2.409 1.16-4.092 1.16-1.223 0-2.213-.191-2.943-.568-.728-.376-1.297-.856-1.691-1.427-.42-.608-.819-1.381-1.184-2.292-.341-.874-.766-1.549-1.263-2.007-.537-.496-1.198-.747-1.966-.747-.927 0-1.706.316-2.313.94-.603.619-.909 1.374-.909 2.242 0 1.36.457 2.769 1.357 4.188.891 1.405 2.067 2.545 3.497 3.389 1.993 1.159 4.543 1.746 7.58 1.746 2.53 0 4.755-.428 6.614-1.273 1.881-.854 3.333-2.06 4.317-3.581.984-1.522 1.482-3.26 1.482-5.164 0-1.588-.291-2.957-.864-4.067-.576-1.113-1.386-2.044-2.41-2.77z" fill="#4671c6"/></g><g><path d="m96.998 180.282h-13.665v-7.536h12.109c1.07 0 1.889-.264 2.433-.783.551-.525.831-1.208.831-2.03 0-.825-.286-1.503-.849-2.018-.55-.5-1.362-.754-2.414-.754h-12.11v-6.369h13.194c1.093 0 1.933-.261 2.497-.775.577-.527.869-1.227.869-2.079 0-.838-.292-1.531-.87-2.058-.563-.515-1.404-.776-2.497-.776h-16.047c-.928 0-1.711.143-2.327.424-.662.303-1.154.791-1.462 1.45-.29.617-.437 1.408-.437 2.352v22.558c0 1.44.341 2.516 1.014 3.196.674.683 1.755 1.029 3.212 1.029h16.519c1.08 0 1.92-.268 2.497-.797.59-.54.889-1.246.889-2.098 0-.879-.299-1.6-.889-2.139-.577-.529-1.417-.797-2.497-.797z" fill="#4671c6"/></g><g><path d="m122.995 180.118h-11.822v-21.341c0-1.366-.331-2.415-.984-3.115-.663-.709-1.533-1.069-2.586-1.069-1.044 0-1.903.366-2.551 1.086-.636.706-.958 1.748-.958 3.098v23.11c0 1.44.341 2.516 1.014 3.196.674.683 1.755 1.029 3.212 1.029h14.676c1.117 0 1.993-.273 2.603-.811.628-.554.947-1.283.947-2.167 0-.866-.32-1.597-.952-2.171-.619-.56-1.493-.845-2.599-.845z" fill="#4671c6"/></g><g><path d="m148.316 180.118h-11.822v-21.341c0-1.366-.331-2.415-.984-3.115-.663-.709-1.533-1.069-2.586-1.069-1.044 0-1.903.366-2.551 1.086-.636.706-.958 1.748-.958 3.098v23.11c0 1.44.341 2.516 1.014 3.196.674.683 1.755 1.029 3.212 1.029h14.676c1.117 0 1.993-.273 2.603-.811.628-.554.947-1.283.947-2.167 0-.866-.32-1.597-.952-2.171-.619-.56-1.493-.845-2.599-.845z" fill="#4671c6"/></g><g><path d="m175.603 180.282h-13.665v-7.536h12.109c1.07 0 1.889-.264 2.433-.783.551-.526.831-1.209.831-2.03 0-.825-.286-1.504-.85-2.018-.55-.5-1.362-.754-2.414-.754h-12.109v-6.369h13.194c1.093 0 1.934-.261 2.496-.775.577-.526.87-1.226.87-2.079 0-.839-.292-1.532-.869-2.058-.563-.515-1.403-.776-2.497-.776h-16.048c-.928 0-1.711.143-2.327.424-.662.303-1.154.791-1.462 1.45-.29.617-.437 1.408-.437 2.352v22.558c0 1.44.341 2.516 1.014 3.196.674.683 1.755 1.029 3.211 1.029h16.519c1.08 0 1.92-.268 2.498-.797.59-.541.889-1.246.889-2.098 0-.879-.299-1.599-.889-2.14-.579-.528-1.418-.796-2.497-.796z" fill="#4671c6"/></g><g><path d="m208.067 181.396c-.435-1.03-1.053-2.202-1.835-3.484-.784-1.282-1.686-2.507-2.681-3.641-.704-.801-1.44-1.474-2.2-2.012 2.088-.601 3.713-1.506 4.839-2.699 1.347-1.427 2.03-3.347 2.03-5.707 0-1.147-.201-2.25-.596-3.28-.398-1.036-.99-1.958-1.758-2.74-.768-.781-1.663-1.39-2.646-1.803-.821-.375-1.753-.626-2.769-.748-.988-.118-2.185-.178-3.559-.178h-9.887c-1.441 0-2.518.346-3.199 1.027s-1.026 1.757-1.026 3.199v23.09c0 1.331.309 2.369.917 3.087.63.742 1.516 1.118 2.633 1.118 1.04 0 1.9-.356 2.556-1.06.646-.693.973-1.751.973-3.145v-9.142h1.629c1.008 0 1.847.132 2.494.394.634.256 1.277.749 1.912 1.465.665.75 1.434 1.867 2.289 3.324l2.436 4.053c.577.96 1.04 1.699 1.377 2.193.369.542.815.995 1.327 1.349.547.378 1.222.569 2.003.569.65 0 1.237-.132 1.745-.394.513-.265.924-.633 1.223-1.093.305-.47.459-.957.459-1.449-.001-.29-.072-.843-.686-2.293zm-18.209-20.727h5.109c2.504 0 3.558.224 4.003.412.664.278 1.167.683 1.537 1.238.37.556.55 1.185.55 1.923 0 .936-.224 1.669-.666 2.18-.455.526-1.137.907-2.027 1.132-.95.242-2.148.364-3.562.364h-4.945v-7.249z" fill="#4671c6"/></g><g><path d="m243.905 199.202-231.811-.001c-2.149 0-4.097-1.098-5.209-2.937-1.112-1.838-1.182-4.073-.185-5.977l9.672-18.471c.318-.607.318-1.331 0-1.938l-9.672-18.469c-.997-1.904-.927-4.138.185-5.977 1.113-1.839 3.061-2.937 5.209-2.937l231.811.001c2.149 0 4.097 1.098 5.209 2.937 1.112 1.838 1.182 4.073.185 5.977l-9.672 18.471c-.318.607-.318 1.331 0 1.938l9.672 18.471c.997 1.904.927 4.138-.185 5.977-1.112 1.837-3.06 2.935-5.209 2.935zm-231.81-52.706c-1.063 0-1.604.705-1.787 1.007-.184.303-.557 1.109-.063 2.05l9.672 18.471c.926 1.769.926 3.88 0 5.649l-9.672 18.471c-.493.941-.12 1.748.063 2.05s.724 1.007 1.787 1.007l231.811.001c1.063 0 1.604-.705 1.787-1.007.184-.303.557-1.109.063-2.05l-9.672-18.471c-.926-1.769-.926-3.88 0-5.649l9.672-18.471c.493-.941.12-1.748-.063-2.05s-.724-1.007-1.787-1.007z" fill="#3762cc"/></g><g><path d="m162.68 95.042v-4.579c0-2.219-1.799-4.018-4.018-4.018h-4.427-21.593c-1.339 0-2.424-1.085-2.424-2.424v-14.949c0-6.371-5.14-11.542-11.499-11.592-1.944-.015-3.543 1.525-3.543 3.469v9.986c0 2.373-.616 4.706-1.786 6.771l-7.176 12.652c-.112.202-.214.405-.305.609-.835 1.872-2.593 3.16-4.642 3.16h-5.947c-1.105 0-2 .895-2 2v28.309c0 1.105.895 2 2 2h6.202c1.94 0 3.767 1.097 4.523 2.884 1.518 3.586 5.069 6.103 9.209 6.103h43.204c2.332 0 4.222-1.89 4.222-4.222v-3.8c0-1.298-.585-2.458-1.506-3.233-.624-.525-.624-1.453 0-1.979.921-.775 1.506-1.935 1.506-3.233v-3.8c0-1.298-.585-2.458-1.506-3.233-.617-.519-.617-1.459 0-1.979.921-.775 1.506-1.935 1.506-3.233v-3.8c0-1.438-.723-2.697-1.824-3.454-.39-.268-.381-.817.015-1.077 1.089-.714 1.809-1.938 1.809-3.338z" fill="#f9cfcf"/></g><g><path d="m158.458 137.422h-43.204c-4.83 0-9.167-2.875-11.05-7.323-.421-.995-1.499-1.663-2.681-1.663h-6.203c-2.206 0-4-1.794-4-4v-28.31c0-2.206 1.794-4 4-4h5.947c1.193 0 2.272-.757 2.815-1.975.116-.258.243-.514.385-.767l7.184-12.666c.998-1.76 1.526-3.76 1.526-5.784v-9.986c0-1.462.572-2.835 1.611-3.866 1.054-1.045 2.446-1.593 3.948-1.603 7.435.058 13.483 6.155 13.483 13.592v14.949c0 .234.19.424.424.424h26.019c3.318 0 6.018 2.7 6.018 6.018v4.579c0 1.452-.522 2.827-1.445 3.9.923 1.102 1.445 2.502 1.445 3.97v3.8c0 1.578-.594 3.079-1.651 4.222 1.058 1.144 1.651 2.645 1.651 4.223v3.8c0 1.578-.594 3.078-1.651 4.222 1.057 1.143 1.651 2.644 1.651 4.222v3.8c0 3.431-2.791 6.222-6.222 6.222zm-63.138-41.295v28.31h6.202c2.811 0 5.31 1.611 6.365 4.104 1.255 2.966 4.147 4.882 7.367 4.882h43.204c1.226 0 2.223-.997 2.223-2.222v-3.8c0-.658-.289-1.278-.793-1.702-.751-.632-1.182-1.551-1.181-2.521 0-.97.431-1.888 1.182-2.52.503-.424.793-1.044.793-1.702v-3.8c0-.658-.29-1.278-.794-1.703-.747-.628-1.175-1.546-1.175-2.519s.428-1.892 1.175-2.521c.505-.424.794-1.045.794-1.703v-3.8c0-.729-.349-1.388-.958-1.807-.731-.503-1.162-1.329-1.153-2.208.01-.881.459-1.699 1.204-2.188.568-.373.907-.996.907-1.667v-4.579c0-1.113-.905-2.018-2.018-2.018h-26.019c-2.439 0-4.424-1.984-4.424-4.424v-14.947c0-5.248-4.268-9.551-9.514-9.592-.432.021-.809.154-1.1.442-.276.274-.428.639-.428 1.026v9.986c0 2.714-.708 5.396-2.046 7.757l-7.176 12.652c-.076.136-.151.287-.219.439-1.177 2.638-3.716 4.343-6.468 4.343h-5.95z" fill="#3762cc"/></g></g></svg>