<?xml version="1.0" encoding="iso-8859-1"?>
<!-- Generator: Adobe Illustrator 19.0.0, SVG Export Plug-In . SVG Version: 6.00 Build 0)  -->
<svg xmlns="http://www.w3.org/2000/svg" xmlns:xlink="http://www.w3.org/1999/xlink" version="1.1" id="Layer_1" x="0px" y="0px" viewBox="0 0 512 512" style="enable-background:new 0 0 512 512;" xml:space="preserve" width="512" height="512">
<g>
	<g>
		<path style="fill:#D9D9D9;" d="M21.506,248.995c24.174,68.791,77.733,123.397,145.674,149.052l20.958-15.118l-45.591-112.596    l-82.202-33.355L21.506,248.995z"/>
		<path style="fill:#F5F5F5;" d="M426.511,225.225l36.431,18.92l-93.493,26.184l-45.591,112.6l-14.144,25.479    c-17.294,3.73-35.271,5.668-53.715,5.606c-18.444,0.062-36.421-1.875-53.715-5.606l-14.144-25.479l-45.591-112.6l-93.493-26.184    l36.431-18.92l51.352-127.241h238.318L426.511,225.225z"/>
		<path style="fill:#D9D9D9;" d="M490.494,248.995c-24.174,68.791-77.733,123.397-145.674,149.052l-20.958-15.118l45.591-112.596    l82.202-33.355L490.494,248.995z"/>
		<path style="fill:#D9D9D9;" d="M136.841,97.984c0,84.447-51.352,127.241-51.352,127.241l-36.431,18.92l-11.336-3.171    L11.745,212.48c-2.611-13.957-4.051-28.349-4.228-43.053c-0.187-15.833,1.109-31.334,3.761-46.358    c2.549-14.475,15.014-25.085,29.717-25.085H136.841z"/>
		<path style="fill:#D9D9D9;" d="M504.482,169.428c-0.176,14.703-1.616,29.095-4.228,43.053l-25.977,28.494l-11.336,3.171    l-36.431-18.92c0,0-51.352-42.794-51.352-127.241h95.845c14.703,0,27.168,10.61,29.717,25.085    C503.373,138.094,504.669,153.595,504.482,169.428z"/>
		<g>
			<path style="fill:#FAB3CE;" d="M307.456,382.235c0,8.849,0.756,17.594,2.259,26.173c12.051-2.601,23.78-6.072,35.105-10.362     c-0.725-5.181-1.098-10.465-1.098-15.812c0-70.884,65.009-129.033,146.773-133.24c4.145-11.781,7.419-23.977,9.761-36.514h-0.249     c-50.958,0-98.985,17.356-135.23,48.855C327.816,293.477,307.456,336.405,307.456,382.235z"/>
		</g>
		<path style="fill:#FAB3CE;" d="M142.165,132.579H93.243c-8.68,0-15.717,7.037-15.717,15.717v16.152    c0,8.68,7.037,15.717,15.717,15.717h48.922c8.68,0,15.717-7.037,15.717-15.717v-16.152    C157.883,139.616,150.846,132.579,142.165,132.579z"/>
		<path style="fill:#FAB3CE;" d="M369.834,132.579h48.922c8.68,0,15.717,7.037,15.717,15.717v16.152    c0,8.68-7.037,15.717-15.717,15.717h-48.922c-8.68,0-15.717-7.037-15.717-15.717v-16.152    C354.117,139.616,361.154,132.579,369.834,132.579z"/>
		<g>
			<path style="fill:#FAB3CE;" d="M204.544,382.235c0,8.849-0.756,17.594-2.259,26.173c-12.051-2.601-23.78-6.072-35.105-10.362     c0.725-5.181,1.098-10.465,1.098-15.812c0-70.884-65.009-129.033-146.773-133.24c-4.145-11.781-7.419-23.977-9.761-36.514h0.249     c50.959,0,98.985,17.356,135.23,48.855C184.183,293.477,204.544,336.405,204.544,382.235z"/>
		</g>
	</g>
	<g>
		<path d="M159.674,204.569v16.076c0,4.142,3.358,7.5,7.5,7.5s7.5-3.358,7.5-7.5v-16.076c0-4.142-3.358-7.5-7.5-7.5    S159.674,200.427,159.674,204.569z"/>
		<path d="M352.326,220.645v-16.076c0-4.142-3.358-7.5-7.5-7.5s-7.5,3.358-7.5,7.5v16.076c0,4.142,3.358,7.5,7.5,7.5    S352.326,224.787,352.326,220.645z"/>
		<path d="M256,236.726c10.708,0,20.757-4.47,27.57-12.264c2.727-3.118,2.408-7.856-0.71-10.583s-7.857-2.409-10.583,0.71    c-3.964,4.535-9.897,7.136-16.277,7.136s-12.313-2.601-16.277-7.136c-2.726-3.119-7.464-3.437-10.583-0.711    c-3.119,2.727-3.437,7.465-0.71,10.583C235.243,232.256,245.291,236.726,256,236.726z"/>
		<path d="M210.896,97.943c0-4.142-3.358-7.5-7.5-7.5h-162.4c-18.307,0-33.912,13.157-37.103,31.281    c-2.76,15.636-4.064,31.702-3.875,47.752c0.179,14.934,1.644,29.852,4.354,44.34c2.387,12.783,5.771,25.44,10.058,37.624    c24.949,70.998,79.65,126.973,150.093,153.579c11.691,4.428,23.863,8.021,36.181,10.68c48.511,10.469,100.35,6.906,146.782-10.684    c20.867-7.881,40.676-18.538,58.877-31.673c3.359-2.424,4.117-7.112,1.692-10.471c-2.424-3.358-7.112-4.117-10.471-1.692    c-14.44,10.421-29.951,19.183-46.226,26.119c0.17-0.072-0.137-4.709-0.137-5.109c0-21.728,6.907-43.238,18.912-61.396    c8.158-12.339,18.603-23.204,30.342-32.177c22.331-17.069,49.439-27.44,77.24-30.99c0.512-0.065,1.024-0.131,1.538-0.192    c-13.149,32.194-33.393,61.464-59.015,85.201c-3.039,2.815-3.22,7.56-0.405,10.599c2.814,3.038,7.56,3.22,10.599,0.405    c30.284-28.056,53.499-63.393,67.136-102.196c4.287-12.186,7.671-24.845,10.06-37.639c2.709-14.485,4.174-29.399,4.353-44.33    c0.188-16.051-1.115-32.116-3.875-47.747c-3.192-18.127-18.797-31.285-37.104-31.285H233.396c-4.142,0-7.5,3.358-7.5,7.5    s3.358,7.5,7.5,7.5h134.396c0.176,4.978,0.545,9.981,1.075,14.929c0.169,1.554,0.353,3.104,0.56,4.669    c-0.058-0.442-5.919,0.873-6.445,1.036c-9.559,2.964-16.365,12.183-16.365,22.178v16.152c0,6.075,2.349,11.61,6.182,15.753    c4.244,4.586,10.309,7.464,17.035,7.464h19.241c0.115,0.219,3.612,6.588,4.856,8.673c6.943,11.64,13.938,20.346,19.177,26.121    c-19.317,8.237-37.403,19.431-53.253,33.216c-13.978,12.156-26.252,26.33-35.927,42.145    c-15.663,25.589-23.972,54.401-23.972,84.416c0,6.756,0.424,13.521,1.278,20.223c-14.828,2.744-30.007,4.114-45.259,4.056    c-15.218,0.049-30.381-1.312-45.208-4.056c0.857-6.702,1.278-13.468,1.278-20.224c0-42.02-16.287-81.684-46.236-113.447    c-17.28-18.327-38.18-33.077-61.002-43.685c-0.109-0.051-4.038-1.842-5.913-2.642c7.269-8.032,13.662-16.829,19.189-26.142    c1.687-2.842,3.311-5.724,4.842-8.652h19.241c12.802,0,23.217-10.415,23.217-23.217v-16.152c0-4.849-1.561-9.538-4.34-13.493    c-4.179-5.951-11.213-9.596-18.471-9.721c0.001-0.01,0.002-0.02,0.004-0.03c0.891-6.482,1.4-13.032,1.631-19.569h59.188    C207.538,105.443,210.896,102.085,210.896,97.943z M315.96,399.207c-0.02-0.173-1.005-11.507-1.005-17.014    c0-27.259,7.594-53.468,21.908-76.786c8.858-14.43,20.067-27.351,32.833-38.453c28.345-24.651,63.646-39.383,100.625-44.901    c6.693-0.999,13.782-1.641,20.686-1.928c-1.663,7.323-3.67,14.571-6,21.667c-5.807,0.455-11.591,1.179-17.329,2.174    c-27.499,4.765-54.591,15.988-76.957,33.268c-13.129,10.144-24.859,22.57-33.928,36.604    c-13.077,20.238-20.571,44.217-20.571,68.354c0,0.954,0.759,10.688,0.479,10.789C329.912,395.363,322.976,397.444,315.96,399.207z     M493.335,124.332c2.598,14.716,3.825,29.845,3.647,44.964c-0.144,12.002-1.169,23.99-3.051,35.722    c-7.809,0.202-15.574,0.865-23.326,1.812c-14.306,1.853-28.607,4.99-42.234,9.759c-0.019,0.007-0.038,0.013-0.057,0.019    c-3.829-3.789-7.359-7.897-10.668-12.145c-4.169-5.352-7.979-10.987-11.41-16.838h12.52c12.802,0,23.217-10.415,23.217-23.217    v-16.152c0-12.802-10.415-23.217-23.217-23.217H384.58c-0.04-0.278-0.081-0.555-0.12-0.833c-0.864-6.221-1.407-12.487-1.65-18.763    h88.193C482.016,105.443,491.408,113.386,493.335,124.332z M363.689,169.844c-1.284-1.451-2.072-3.351-2.072-5.436v-16.152    c0-4.531,3.686-8.217,8.217-8.217h48.922c4.531,0,8.217,3.686,8.217,8.217v16.152c0,4.531-3.686,8.217-8.217,8.217h-48.922    C367.389,172.624,365.195,171.544,363.689,169.844z M142.165,172.624H93.243c-4.531,0-8.217-3.687-8.217-8.217v-16.152    c0-4.531,3.686-8.217,8.217-8.217h48.922c4.531,0,8.217,3.686,8.217,8.217v16.152    C150.383,168.938,146.697,172.624,142.165,172.624z M18.665,124.329c1.927-10.943,11.318-18.886,22.331-18.886h88.193    c-0.157,4.113-0.455,8.216-0.87,12.311c-0.247,2.435-0.552,4.862-0.899,7.284H93.243c-12.802,0-23.217,10.416-23.217,23.217    c0,0,0,16.152,0,16.152c0,12.802,10.415,23.217,23.217,23.217l12.52,0c-4.788,8.176-10.31,15.947-16.553,23.077    c-1.737,1.984-3.617,4.013-5.524,5.906c-0.022-0.007-0.044-0.015-0.067-0.022c-0.68-0.23-1.366-0.45-2.049-0.674    c-18.208-5.969-37.19-9.482-56.314-10.592c-2.394-0.139-4.791-0.24-7.188-0.302c-1.882-11.73-2.907-23.718-3.051-35.72    C14.839,154.18,16.066,139.051,18.665,124.329z M32.737,257.433c19.761,2.339,39.199,8.057,56.854,17.284    c18.038,9.427,34.475,22.461,46.999,38.699c12.176,15.787,20.637,34.608,23.223,54.448c0.84,6.443,1.139,12.948,0.828,19.438    C102.39,362.535,56.568,315.983,32.737,257.433z M175.494,390.513c0.189-2.769,0.285-5.545,0.285-8.319    c0-42.99-23.452-82.11-57.506-107.223c-14.086-10.388-29.934-18.503-46.518-24.073c-0.032-0.011-0.065-0.021-0.097-0.032    c-14.447-4.852-29.473-7.881-44.666-9.072c-2.33-7.096-4.336-14.342-5.982-21.667c21.079,0.884,42.074,4.901,61.91,12.11    c21.657,7.871,41.979,19.586,59.381,34.716c35.301,30.7,54.742,71.626,54.742,115.241c0,5.509-0.322,11.02-0.943,16.494    c-0.02,0.173-0.042,0.346-0.062,0.52c-7.015-1.764-13.952-3.845-20.739-6.224C175.373,392.161,175.437,391.337,175.494,390.513z"/>
	</g>
</g>















</svg>
