<?xml version="1.0" encoding="iso-8859-1"?>
<!-- Generator: Adobe Illustrator 19.0.0, SVG Export Plug-In . SVG Version: 6.00 Build 0)  -->
<svg version="1.1" id="Capa_1" xmlns="http://www.w3.org/2000/svg" xmlns:xlink="http://www.w3.org/1999/xlink" x="0px" y="0px"
	 viewBox="0 0 480 480" style="enable-background:new 0 0 480 480;" xml:space="preserve">
<path style="fill:#763A02;" d="M80,88h80v72H80V88z"/>
<path style="fill:#FF8800;" d="M8,456V248c0-61.856,50.144-112,112-112s112,50.144,112,112v208c0,8.837-7.163,16-16,16H24
	C15.163,472,8,464.837,8,456z"/>
<path style="fill:#FADBB7;" d="M8,248h224v160H8V248z"/>
<path style="fill:#FEBD33;" d="M216,360c0-22.091,17.909-40,40-40h3.072c3.271-0.001,6.53,0.399,9.704,1.192l0.472,0.12
	c17.768,4.442,36.013,6.688,54.328,6.688h24.848c18.315,0,36.56-2.246,54.328-6.688l0.472-0.12c3.174-0.793,6.433-1.193,9.704-1.192
	H416c22.091,0,40,17.909,40,40s-17.909,40-40,40h-3.072c-3.271,0.001-6.53-0.399-9.704-1.192l-0.472-0.12
	c-17.768-4.442-36.013-6.688-54.328-6.688h-24.848c-18.315,0-36.56,2.246-54.328,6.688l-0.472,0.12
	c-3.174,0.793-6.433,1.193-9.704,1.192H256C233.909,400,216,382.091,216,360z"/>
<path style="fill:#FF8800;" d="M104,40h32v48h-32V40z"/>
<path style="fill:#763A02;" d="M80,8h80v32H80V8z"/>
<path style="fill:#33BC00;" d="M200,392h272v32H200V392z"/>
<path style="fill:#008100;" d="M216,424c0,26.51,21.49,48,48,48l0,0h144c26.51,0,48-21.49,48-48l0,0H216z"/>
<path style="fill:#E6E6E6;" d="M304,184L304,184c22.091,0,40,17.909,40,40l0,0c0,22.091-17.909,40-40,40l0,0
	c-22.091,0-40-17.909-40-40l0,0C264,201.909,281.909,184,304,184z"/>
<path style="fill:#CCCCCC;" d="M392,240L392,240c13.255,0,24,10.745,24,24l0,0c0,13.255-10.745,24-24,24l0,0
	c-13.255,0-24-10.745-24-24l0,0C368,250.745,378.745,240,392,240z"/>
<path style="fill:#F2F2F2;" d="M392,168L392,168c8.837,0,16,7.163,16,16l0,0c0,8.837-7.163,16-16,16l0,0c-8.837,0-16-7.163-16-16
	l0,0C376,175.163,383.163,168,392,168z"/>
<path d="M480,384h-22.568c4.295-7.269,6.563-15.557,6.568-24c-0.031-26.497-21.503-47.969-48-48h-3.072
	c-4.086,0.013-8.155,0.534-12.112,1.552c-17.135,4.282-34.73,6.448-52.392,6.448h-24.848c-17.821-0.012-35.574-2.218-52.856-6.568
	c-3.81-0.95-7.721-1.431-11.648-1.432H256c-5.46,0.019-10.875,0.994-16,2.88V240h-0.408c-3.012-44.656-30.604-83.933-71.592-101.912
	V80h-24V48h24V32h48c4.418,0,8,3.582,8,8v16h16V40c0-13.255-10.745-24-24-24h-48V0H72v48h24v32H72v58.088
	C31.012,156.067,3.42,195.344,0.408,240H0v216c0,13.255,10.745,24,24,24h192c7.068-0.027,13.764-3.167,18.304-8.584
	C243.194,477.024,253.489,480,264,480h144c27.813-0.033,51.387-20.473,55.36-48H480L480,384z M259.072,328
	c2.778,0.01,5.544,0.37,8.232,1.072c18.404,4.597,37.302,6.924,56.272,6.928h24.848c19.129-0.013,38.184-2.377,56.736-7.04
	c2.538-0.637,5.144-0.959,7.76-0.96H416c17.673,0,32,14.327,32,32c0.007,9.226-4.02,17.994-11.024,24H235.312
	c-13.326-11.09-15.138-30.884-4.048-44.21c1.634-1.963,3.501-3.719,5.56-5.23c5.501-4.229,12.238-6.533,19.176-6.56H259.072z M88,32
	V16h64v16H88z M112,48h16v32h-16V48z M88,128V96h64v32H88z M120,144c54.309,0.067,99.449,41.857,103.696,96H16.304
	C20.551,185.857,65.691,144.067,120,144z M16,256h208v68.408c-0.2,0.184-0.376,0.384-0.568,0.568c-0.576,0.528-1.104,1.08-1.648,1.6
	c-0.72,0.728-1.424,1.464-2.088,2.224c-0.504,0.584-0.984,1.184-1.456,1.784c-0.624,0.8-1.224,1.6-1.792,2.4
	c-0.432,0.629-0.851,1.267-1.256,1.912c-0.528,0.848-1.024,1.72-1.496,2.6c-0.36,0.664-0.704,1.32-1.032,2
	c-0.44,0.92-0.8,1.856-1.208,2.8c-0.272,0.68-0.552,1.344-0.8,2.04c-0.344,1-0.632,2.024-0.912,3.048
	c-0.184,0.664-0.392,1.328-0.544,2.008c-0.256,1.144-0.44,2.312-0.616,3.48c-0.088,0.584-0.208,1.152-0.28,1.736
	c-0.441,3.773-0.411,7.586,0.088,11.352c0.08,0.648,0.232,1.28,0.336,1.92c0.224,1.32,0.464,2.632,0.8,3.92
	c0.184,0.736,0.424,1.44,0.648,2.168c0.36,1.168,0.744,2.32,1.192,3.456c0.288,0.728,0.608,1.44,0.928,2.152
	c0.496,1.093,1.029,2.16,1.6,3.2c0.208,0.376,0.36,0.8,0.584,1.16H192v16H16L16,256z M216,464H24c-4.418,0-8-3.582-8-8v-40h176v16
	h16.584c0.056,0.392,0.192,0.8,0.256,1.16c0.319,1.887,0.736,3.756,1.248,5.6c0.152,0.544,0.272,1.088,0.432,1.6
	c0.705,2.281,1.555,4.515,2.544,6.688c0.224,0.488,0.488,0.952,0.728,1.44c0.851,1.735,1.791,3.426,2.816,5.064
	c0.36,0.584,0.72,1.16,1.104,1.728c1.345,2.022,2.82,3.954,4.416,5.784C220.623,462.905,218.377,463.981,216,464z M408,464H264
	c-9.991-0.007-19.615-3.765-26.968-10.528c-1.851-1.726-3.538-3.619-5.04-5.656c-0.448-0.6-0.8-1.224-1.248-1.848
	c-1.005-1.502-1.906-3.071-2.696-4.696c-0.328-0.68-0.672-1.352-0.96-2.048c-0.855-2.043-1.535-4.154-2.032-6.312
	c-0.056-0.256-0.16-0.488-0.216-0.744V432H447.2C443.373,450.611,427.001,463.976,408,464L408,464z M464,416H208v-16h256V416z"/>
<path d="M304,272c26.51,0,48-21.49,48-48s-21.49-48-48-48s-48,21.49-48,48C256.031,250.497,277.503,271.969,304,272z M304,192
	c17.673,0,32,14.327,32,32s-14.327,32-32,32s-32-14.327-32-32S286.327,192,304,192z"/>
<path d="M392,296c17.673,0,32-14.327,32-32s-14.327-32-32-32s-32,14.327-32,32S374.327,296,392,296z M392,248
	c8.837,0,16,7.163,16,16c0,8.837-7.163,16-16,16s-16-7.163-16-16C376,255.163,383.163,248,392,248z"/>
<path d="M392,208c13.255,0,24-10.745,24-24s-10.745-24-24-24s-24,10.745-24,24S378.745,208,392,208z M392,176c4.418,0,8,3.582,8,8
	s-3.582,8-8,8s-8-3.582-8-8S387.582,176,392,176z"/>
<path d="M64,272h112v16H64V272z"/>
<path d="M96,304h48v16H96V304z"/>
<path d="M80,336h80v16H80V336z"/>
<path d="M64,368h48v16H64V368z"/>
<path d="M128,368h48v16h-48V368z"/>
<g>
</g>
<g>
</g>
<g>
</g>
<g>
</g>
<g>
</g>
<g>
</g>
<g>
</g>
<g>
</g>
<g>
</g>
<g>
</g>
<g>
</g>
<g>
</g>
<g>
</g>
<g>
</g>
<g>
</g>
</svg>
