<?xml version="1.0" encoding="iso-8859-1"?>
<!-- Generator: Adobe Illustrator 19.0.0, SVG Export Plug-In . SVG Version: 6.00 Build 0)  -->
<svg xmlns="http://www.w3.org/2000/svg" xmlns:xlink="http://www.w3.org/1999/xlink" version="1.1" id="Layer_1" x="0px" y="0px" viewBox="0 0 511.977 511.977" style="enable-background:new 0 0 511.977 511.977;" xml:space="preserve" width="512" height="512">
<g>
	<g>
		<path style="fill:#80C9FF;" d="M456.94,162.853l27.333-43.604l-28.103-46.517c-9.347-15.468-23.584-27.379-40.458-33.841    l-54.024-20.689h-22.468l-26.883,32.383l-56.35,18.611l-56.35-18.611l-26.883-32.383h-22.468L96.264,38.891    C79.39,45.353,65.152,57.264,55.805,72.732l-28.103,46.517l27.333,43.604l41.249,31.802l18.735-9.988    c-0.486,1.499-43.054,132.656-11.663,283.633l53.202,18.094L209.76,468.3l15.369-47.644c2.37-7.346,9.208-12.325,16.927-12.325    h27.864c7.719,0,14.557,4.979,16.927,12.325l15.369,47.644l53.202,18.094L408.62,468.3    c31.391-150.977-11.177-282.134-11.663-283.633l18.735,9.988L456.94,162.853z"/>
		<path style="fill:#6DAAD9;" d="M209.76,468.3l-6.483,20.11c-3.091,9.585-12.014,16.078-22.085,16.078h-51.077    c-10.691,0-19.986-7.3-22.55-17.67c-1.53-6.204-2.926-12.376-4.208-18.518H209.76z"/>
		<path style="fill:#6DAAD9;" d="M96.284,194.655l-16.998,9.068c-9.378,5.004-20.948,2.998-28.092-4.86l-31.37-34.493    c-6.907-7.6-8.003-18.828-2.688-27.617l10.567-17.505L96.284,194.655z"/>
		<path style="fill:#6DAAD9;" d="M408.62,468.3c-0.713,3.433-1.468,6.865-2.254,10.319c-0.631,2.73-1.282,5.459-1.954,8.199    c-2.564,10.371-11.859,17.67-22.55,17.67h-51.077c-10.071,0-18.994-6.493-22.085-16.078l-6.483-20.11H408.62z"/>
		<path style="fill:#6DAAD9;" d="M492.152,164.371l-31.37,34.493c-7.145,7.858-18.715,9.864-28.092,4.86l-16.998-9.068    l68.582-75.406l10.567,17.505C500.155,145.543,499.059,156.771,492.152,164.371z"/>
		<path style="fill:#6DAAD9;" d="M335.173,8.047c-3.96-1.516-8.454,0.142-10.418,3.9c-12.952,24.787-38.91,41.74-68.767,41.74    c-29.847,0-55.814-16.953-68.767-41.74c-1.964-3.758-6.458-5.416-10.418-3.899l-26.516,10.154    c16.719,41.989,57.746,71.673,105.701,71.673S344.97,60.19,361.689,18.202L335.173,8.047z"/>
		<circle style="fill:#D98F2D;" cx="193.44" cy="178.277" r="30.502"/>
		<circle style="fill:#D98F2D;" cx="318.537" cy="178.277" r="30.502"/>
		<ellipse style="fill:#FFB641;" cx="255.988" cy="225.064" rx="82.199" ry="72.118"/>
	</g>
	<g>
		<path d="M212.692,205.71c-4.142,0-7.5,3.358-7.5,7.5v6.704c0,4.142,3.358,7.5,7.5,7.5s7.5-3.358,7.5-7.5v-6.704    C220.192,209.068,216.834,205.71,212.692,205.71z"/>
		<path d="M299.284,205.71c-4.142,0-7.5,3.358-7.5,7.5v6.704c0,4.142,3.358,7.5,7.5,7.5s7.5-3.358,7.5-7.5v-6.704    C306.784,209.068,303.426,205.71,299.284,205.71z"/>
		<path d="M279.187,235.01c-3.118-2.726-7.857-2.409-10.583,0.71c-3.064,3.505-7.663,5.516-12.616,5.516    c-4.954,0-9.552-2.011-12.616-5.516c-2.727-3.119-7.464-3.437-10.583-0.711s-3.437,7.464-0.711,10.583    c5.913,6.764,14.628,10.644,23.91,10.644c9.282,0,17.996-3.879,23.909-10.644C282.623,242.475,282.305,237.736,279.187,235.01z"/>
		<path d="M255.988,225.828c6.091,0,11.029-3.821,11.029-8.535c0-4.713-22.057-4.713-22.057,0    C244.959,222.007,249.897,225.828,255.988,225.828z"/>
		<path d="M490.693,115.359L462.59,68.842c-10.16-16.815-25.856-29.943-44.195-36.966c0,0-80.5-30.828-80.54-30.844    c-7.428-2.845-16.06,0.374-19.748,7.431c-12.154,23.262-35.957,37.713-62.119,37.713c-26.16,0-49.963-14.451-62.119-37.713    c-3.681-7.044-12.348-10.265-19.747-7.43l-26.517,10.154L93.581,31.875c-18.339,7.023-34.034,20.151-44.196,36.967    c0,0-28.103,46.517-28.104,46.519l-10.564,17.5c-6.976,11.536-5.514,26.563,3.558,36.544c0,0,31.363,34.485,31.369,34.492    c9.34,10.269,24.928,12.965,37.172,6.431c0,0,16.998-9.068,17-9.069l3.229-1.722c-7.129,27.866-19.482,87.049-18.684,160.14    c0.045,4.114,3.394,7.418,7.498,7.418c0.028,0,0.056,0,0.083,0c4.142-0.045,7.463-3.439,7.417-7.582    c-1.068-97.743,21.814-169.523,22.793-172.545c2.04-6.293-4.834-12.038-10.663-8.931l-13.585,7.242l-60.892-66.951L62.224,76.6    c8.443-13.973,21.485-24.881,36.722-30.716c0,0,47.308-18.117,47.322-18.123c-0.454,0.174,10.395,17.881,11.498,19.407    c8.077,11.173,18.055,20.939,29.396,28.776c10.129,6.997,21.135,12.346,32.696,15.949c25.806,8.042,54.127,7.162,79.376-2.484    c22.202-8.483,41.799-23.579,55.562-42.969c4.174-5.881,7.843-12.154,10.913-18.679l47.322,18.123    c15.237,5.835,28.279,16.744,36.721,30.715l25.21,41.73L414.07,185.28c0,0-13.561-7.229-13.585-7.242    c-5.832-3.109-12.694,2.658-10.662,8.933c0.349,1.077,8.611,26.833,15.08,67.795c0.646,4.091,4.488,6.884,8.578,6.238    c4.091-0.646,6.884-4.487,6.238-8.578c-3.56-22.538-7.681-40.704-10.799-52.893l20.239,10.795    c12.259,6.54,27.828,3.847,37.171-6.43l31.372-34.494c9.07-9.98,10.532-25.006,3.559-36.537    C501.261,132.867,490.694,115.362,490.693,115.359z M75.755,197.095c-6.173,3.294-14.199,2.006-19.013-3.289l-31.368-34.491    c-4.713-5.186-5.445-12.698-1.817-18.696l5.367-8.891l55.329,60.834C84.252,192.562,75.756,197.094,75.755,197.095z     M179.486,15.04c0.361-0.138,0.849-0.089,1.088,0.369c14.751,28.23,43.648,45.767,75.414,45.767    c31.767,0,60.664-17.537,75.413-45.766c0.239-0.458,0.729-0.507,1.089-0.37l19.162,7.338c-0.018,0.037-0.034,0.076-0.052,0.113    c-2.923,6.037-6.46,11.851-10.481,17.218c-19.814,26.447-51.786,42.654-85.131,42.654c-21.681,0-42.533-6.488-60.301-18.762    c-11.191-7.729-20.893-17.625-28.392-28.97c-2.571-3.89-4.859-7.958-6.919-12.141c-0.018-0.037-0.034-0.076-0.052-0.113    L179.486,15.04z M486.604,159.313c0,0-31.36,34.482-31.371,34.494c-4.775,5.25-12.756,6.627-19.013,3.288l-8.497-4.533    l55.329-60.834l5.371,8.896C492.047,146.617,491.315,154.129,486.604,159.313z"/>
		<path d="M100.429,389.138c-0.253-4.135-3.8-7.279-7.944-7.028c-4.134,0.253-7.281,3.81-7.027,7.944    c1.669,27.264,5.221,54.1,10.556,79.762l0,0c0,0.002,0,0.003,0.001,0.005c1.332,6.38,2.768,12.699,4.27,18.785    c3.402,13.76,15.669,23.37,29.831,23.37h51.077c13.375,0,25.119-8.55,29.223-21.276l21.852-67.753    c1.375-4.264,5.309-7.128,9.789-7.128h27.864c4.48,0,8.414,2.864,9.789,7.128l21.852,67.754    c4.104,12.726,15.848,21.275,29.223,21.275h51.077c14.162,0,26.429-9.61,29.835-23.384c0.68-2.772,1.339-5.535,1.983-8.322    c0.862-3.79,1.609-7.209,2.284-10.457c0-0.002,0-0.004,0.001-0.006c12.314-59.228,14.943-122.154,7.813-187.032    c-0.452-4.117-4.153-7.089-8.274-6.636c-4.117,0.452-7.088,4.157-6.636,8.274c6.717,61.132,4.568,120.433-6.385,176.374h-94.805    l-13.693-42.447c-3.38-10.48-13.051-17.522-24.064-17.522h-27.864c-11.013,0-20.684,7.042-24.064,17.522l-13.693,42.447h-94.804    C104.972,437.647,101.925,413.576,100.429,389.138z M399.314,475.789c-0.084,0.373-0.169,0.75-0.256,1.13    c-0.624,2.697-1.267,5.395-1.928,8.087c-1.743,7.048-8.022,11.971-15.27,11.971h-51.077c-6.842,0-12.849-4.372-14.947-10.879    l-3.323-10.309H399.314z M199.462,475.789l-3.323,10.308c-2.099,6.508-8.106,10.88-14.947,10.88h-51.077    c-7.248,0-13.527-4.922-15.269-11.966c-0.745-3.021-1.474-6.102-2.182-9.222H199.462z"/>
		<path d="M356.539,178.265c0-20.955-17.048-38.002-38.002-38.002c-10.363,0-20.184,4.252-27.288,11.585    c-10.829-4.125-22.749-6.414-35.26-6.414s-24.431,2.289-35.261,6.414c-7.104-7.333-16.924-11.585-27.288-11.585    c-20.955,0-38.002,17.048-38.002,38.002c0,11.21,4.845,21.586,13.174,28.75c-1.519,5.797-2.323,11.835-2.323,18.037    c0,43.901,40.239,79.618,89.699,79.618c49.46,0,89.699-35.716,89.699-79.618c0-6.202-0.804-12.24-2.323-18.037    C351.694,199.852,356.539,189.475,356.539,178.265z M174.626,191.52c-2.694-3.811-4.189-8.406-4.189-13.254    c0-12.684,10.319-23.002,23.002-23.002c4.502,0,8.839,1.324,12.52,3.714c-5.414,3.24-10.392,6.997-14.88,11.178    C184.478,176.305,178.831,183.527,174.626,191.52z M255.988,289.67c-41.189,0-74.699-28.987-74.699-64.618    c0-25.418,17.556-46.967,40.002-57.198c10.375-4.729,22.177-7.42,34.697-7.42c26.762,0,54.372,13.045,67.55,37.065    c0.021,0.038,0.039,0.077,0.06,0.114c4.578,8.388,7.089,17.875,7.089,27.439C330.687,260.683,297.177,289.67,255.988,289.67z     M336.695,190.324c-3.188-5.82-7.145-11.209-11.675-16.054c-5.466-5.847-11.858-11.018-19.002-15.292    c3.681-2.391,8.018-3.715,12.52-3.715c12.684,0,23.002,10.319,23.002,23.002c0,4.848-1.495,9.443-4.189,13.255    C337.203,191.242,336.762,190.447,336.695,190.324z"/>
	</g>
</g>















</svg>
