<svg id="Layer_5" enable-background="new 0 0 64 64" height="512" viewBox="0 0 64 64" width="512" xmlns="http://www.w3.org/2000/svg"><g><g><path d="m40 17c0-2.632.927-5.046 2.469-6.94-1.438-5.376-5.635-9.06-10.469-9.06s-9.031 3.684-10.469 9.06c1.542 1.894 2.469 4.308 2.469 6.94v5.912c2.071 2.615 4.921 4.088 8 4.088s5.929-1.473 8-4.088z" fill="#f0bc5e"/></g><g><path d="m51 23v2c.778 0 1.547-.112 2.287-.333l-.573-1.916c-.553.165-1.13.249-1.714.249z"/><path d="m51 9v2c3.309 0 6 2.691 6 6 0 1.957-.962 3.796-2.573 4.922l1.146 1.64c2.146-1.499 3.427-3.953 3.427-6.562 0-4.411-3.589-8-8-8z"/><path d="m10.713 24.667c.74.221 1.509.333 2.287.333v-2c-.584 0-1.161-.084-1.713-.249z"/><path d="m5 17c0 2.609 1.281 5.063 3.427 6.562l1.146-1.64c-1.611-1.126-2.573-2.965-2.573-4.922 0-3.309 2.691-6 6-6v-2c-4.411 0-8 3.589-8 8z"/><path d="m51 5c-6.617 0-12 5.383-12 12v10.523c-1.062.893-3.992 3.638-6 8.108v-8.691c-.331.035-.663.06-1 .06s-.669-.025-1-.06v8.691c-2.008-4.47-4.938-7.215-6-8.108v-10.523c0-6.617-5.383-12-12-12s-12 5.383-12 12 5.383 12 12 12h10.645c1.227 1.028 6.96 6.319 7.317 15.154-.536.145-1.022.397-1.444.734l-4.118-3.088c-.687-.516-1.54-.8-2.4-.8-2.206 0-4 1.794-4 4 0 1.193.525 2.267 1.357 3-.832.733-1.357 1.807-1.357 3 0 2.206 1.794 4 4 4 .86 0 1.713-.284 2.4-.8l2.189-1.641-3.963 5.661 6.003 4.502 1.371-5.941v6.219h2v-6.219l1.371 5.941 6.003-4.502-3.962-5.66 2.188 1.64c.688.516 1.54.8 2.4.8 2.206 0 4-1.794 4-4 0-1.193-.525-2.267-1.357-3 .832-.733 1.357-1.807 1.357-3 0-2.206-1.794-4-4-4-.86 0-1.713.284-2.4.8l-4.118 3.088c-.422-.337-.909-.589-1.444-.734.358-8.804 6.092-14.12 7.319-15.154h10.643c6.617 0 12-5.383 12-12s-5.383-12-12-12zm-28 22h-10c-5.514 0-10-4.486-10-10s4.486-10 10-10 10 4.486 10 10zm1.199 25.6c-.343.258-.769.4-1.199.4-1.103 0-2-.897-2-2s.897-2 2-2v-2c-1.103 0-2-.897-2-2s.897-2 2-2c.43 0 .856.142 1.2.4l4.105 3.078c-.195.47-.305.983-.305 1.522s.11 1.052.304 1.522zm4.172 6.678-1.997-1.498 3.495-4.992zm7.258 0-1.498-6.49 3.495 4.992zm4.172-15.878c.343-.258.769-.4 1.199-.4 1.103 0 2 .897 2 2s-.897 2-2 2v2c1.103 0 2 .897 2 2s-.897 2-2 2c-.43 0-.856-.142-1.2-.4l-4.105-3.078c.195-.47.305-.983.305-1.522s-.11-1.052-.304-1.522zm-5.801 4.6c0 1.103-.897 2-2 2s-2-.897-2-2 .897-2 2-2 2 .897 2 2zm17-21h-10v-10c0-5.514 4.486-10 10-10s10 4.486 10 10-4.486 10-10 10z"/></g></g></svg>