<svg id="Layer_5" enable-background="new 0 0 64 64" height="512" viewBox="0 0 64 64" width="512" xmlns="http://www.w3.org/2000/svg"><g><path d="m44 45c0-1.657-1.343-3-3-3-.649 0-1.281.211-1.8.6l-4.808 3.606c-.351-.466-.832-.823-1.392-1.022v-.184c0-10.341 7.525-16.144 7.601-16.201l-1.201-1.599c-.232.174-3.99 3.065-6.4 8.431v-8.631h-2v8.632c-2.41-5.367-6.168-8.258-6.4-8.431l-1.2 1.6c.076.056 7.6 5.819 7.6 16.199v.184c-.56.199-1.041.556-1.392 1.023l-4.808-3.607c-.519-.389-1.151-.6-1.8-.6-1.657 0-3 1.343-3 3s1.343 3 3 3c-1.657 0-3 1.343-3 3s1.343 3 3 3c.649 0 1.281-.211 1.8-.6l4.808-3.606c.19.253.414.478.674.66l-5.282 7.546 4 3 2-8.667v10.667h2v-10.667l2 8.667 4-3-5.282-7.546c.259-.182.484-.407.674-.66l4.808 3.606c.519.389 1.151.6 1.8.6 1.657 0 3-1.343 3-3s-1.343-3-3-3c1.657 0 3-1.343 3-3z"/><path d="m25 20.866c1.725 2.625 4.259 4.134 7 4.134s5.275-1.509 7-4.134v-3.866c0-2.195.602-4.247 1.635-6.019-1.101-4.716-4.605-7.981-8.635-7.981s-7.534 3.265-8.635 7.981c1.033 1.772 1.635 3.824 1.635 6.019z"/><path d="m23 17c0-5.514-4.486-10-10-10s-10 4.486-10 10 4.486 10 10 10h10zm-10 8c-.778 0-1.547-.112-2.287-.333l.573-1.916c.553.165 1.13.249 1.714.249zm0-14c-3.309 0-6 2.691-6 6 0 1.957.962 3.796 2.573 4.922l-1.146 1.64c-2.146-1.499-3.427-3.953-3.427-6.562 0-4.411 3.589-8 8-8z"/><path d="m51 7c-5.514 0-10 4.486-10 10v10h10c5.514 0 10-4.486 10-10s-4.486-10-10-10zm0 18v-2c.584 0 1.161-.084 1.713-.249l.573 1.916c-.739.221-1.508.333-2.286.333zm4.573-1.438-1.146-1.64c1.611-1.126 2.573-2.965 2.573-4.922 0-3.309-2.691-6-6-6v-2c4.411 0 8 3.589 8 8 0 2.609-1.281 5.063-3.427 6.562z"/></g></svg>