<?xml version="1.0" encoding="iso-8859-1"?>
<!-- Generator: Adobe Illustrator 19.0.0, SVG Export Plug-In . SVG Version: 6.00 Build 0)  -->
<svg version="1.1" id="Capa_1" xmlns="http://www.w3.org/2000/svg" xmlns:xlink="http://www.w3.org/1999/xlink" x="0px" y="0px"
	 viewBox="0 0 512 512" style="enable-background:new 0 0 512 512;" xml:space="preserve">
<path style="fill:#53506D;" d="M510.965,257.035c0,53.501-16.474,103.151-44.645,144.154c-3.85,5.62-7.919,11.073-12.207,16.349
	c-13.976,17.234-30.159,32.615-48.11,45.696C363.907,493.903,312.071,512,256,512c-40.201,0-78.217-9.304-112.039-25.871
	c-13.352-6.546-26.048-14.216-37.964-22.895C42.381,416.872,1.035,341.777,1.035,257.035C1.035,116.222,115.187,2.071,256,2.071
	S510.965,116.222,510.965,257.035z"/>
<g>
	<path style="fill:#FFC25F;" d="M475.384,384.903l-6.879,6.702c-2.061,2.008-2.997,4.891-2.508,7.722l0.323,1.863
		c-3.85,5.62-7.919,11.073-12.207,16.349l-7.649-4.027c-2.539-1.332-5.578-1.332-8.117,0l-8.502,4.475
		c-6.39,3.361-13.872-2.071-12.644-9.189l1.623-9.47c0.479-2.831-0.458-5.713-2.508-7.722l-6.879-6.702
		c-5.172-5.047-2.321-13.831,4.829-14.871l9.501-1.384c2.841-0.406,5.297-2.196,6.567-4.766l4.256-8.617
		c3.195-6.473,12.436-6.473,15.641,0l4.246,8.617c1.27,2.57,3.726,4.36,6.567,4.766l9.501,1.384
		C477.694,371.072,480.556,379.856,475.384,384.903z"/>
	<path style="fill:#FFC25F;" d="M406.002,463.234C363.907,493.903,312.071,512,256,512s-107.907-18.097-150.002-48.766
		c16.932-15.35,36.215-28.129,57.258-37.735c4.09-1.873,8.242-3.622,12.457-5.235c24.914-9.605,51.982-14.871,80.288-14.871
		c28.296,0,55.364,5.255,80.277,14.871c4.225,1.613,8.377,3.361,12.467,5.235C369.777,435.105,389.071,447.895,406.002,463.234z"/>
</g>
<circle style="fill:#F4B298;" cx="431.879" cy="265.736" r="42.855"/>
<circle style="fill:#D88F7C;" cx="424.386" cy="272.885" r="28.213"/>
<circle style="fill:#EAA48C;" cx="80.109" cy="265.736" r="42.855"/>
<circle style="fill:#D88F7C;" cx="87.614" cy="272.885" r="28.213"/>
<path style="fill:#EDAC4F;" d="M348.745,425.499c-26.943,12.842-58.715,19.502-92.745,19.502c-14.694,0-27.984-1.249-40.493-3.694
	c-22.385-4.381-45.342,4.964-58.455,23.613c-4.652,6.629-9.023,13.706-13.092,21.209c-13.352-6.546-26.048-14.216-37.964-22.895
	c38.13-34.571,88.259-56.144,143.405-57.736c0.333-0.01,0.687-0.021,1.041-0.031c1.842-0.042,3.705-0.073,5.557-0.073
	C289.083,405.394,320.49,412.585,348.745,425.499z"/>
<path style="fill:#F4B298;" d="M336.277,420.265c-21.958,24.341-49.879,38.911-80.277,38.911c-30.398,0-58.33-14.569-80.288-38.911
	c24.914-9.605,51.982-14.871,80.288-14.871C284.296,405.394,311.364,410.649,336.277,420.265z"/>
<path style="fill:#F9CEBB;" d="M432.029,274.284c0,97.22-78.812,151.588-176.032,151.588S79.965,371.503,79.965,274.284
	S158.777,98.252,255.997,98.252S432.029,177.064,432.029,274.284z"/>
<path style="fill:#F4B298;" d="M256.002,425.867c-97.223,0-176.038-54.372-176.038-151.583c0-96.68,77.933-175.155,174.401-176.028
	c-69.102,1.222-124.844,79.559-124.844,176.028C129.522,371.496,186.147,425.867,256.002,425.867z"/>
<g>
	<path style="fill:#39B7DD;" d="M353.429,274.725v-31.604c0-8.242-6.682-14.924-14.924-14.924l0,0
		c-8.242,0-14.924,6.682-14.924,14.924v31.604c0,8.242,6.682,14.924,14.924,14.924l0,0
		C346.747,289.649,353.429,282.968,353.429,274.725z"/>
	<path style="fill:#39B7DD;" d="M188.414,274.725v-31.604c0-8.242-6.682-14.924-14.924-14.924l0,0
		c-8.242,0-14.924,6.682-14.924,14.924v31.604c0,8.242,6.682,14.924,14.924,14.924l0,0
		C181.732,289.649,188.414,282.968,188.414,274.725z"/>
</g>
<path style="fill:#53506D;" d="M204.723,321.72c-7.77,0-13.628,7.215-11.863,14.782c6.688,28.682,32.418,50.047,63.137,50.047
	s56.447-21.366,63.137-50.047c1.765-7.567-4.093-14.782-11.863-14.782H204.723z"/>
<path style="fill:#FFFFFF;" d="M271.092,340.85L271.092,340.85c-4.226,0-7.652-3.426-7.652-7.652V321.72h15.304v11.478
	C278.744,337.424,275.318,340.85,271.092,340.85z"/>
<g>
	<path style="fill:#F4B298;" d="M272.47,261.142h-32.946c-5.869,0-10.627,4.758-10.627,10.627l0,0
		c0,5.869,4.758,10.627,10.627,10.627h32.946c5.869,0,10.627-4.758,10.627-10.627l0,0C283.097,265.9,278.339,261.142,272.47,261.142
		z"/>
	<path style="fill:#F4B298;" d="M255.997,238.99L255.997,238.99c-6.75,0-12.222,5.472-12.222,12.222v20.558h24.443v-20.558
		C268.219,244.462,262.747,238.99,255.997,238.99z"/>
</g>
<path style="fill:#BA6041;" d="M255.997,98.252c-44.102,19.948-44.82,83.481-5.311,102.313
	c56.858,27.101,77.582-46.762,77.582-46.762s-37.197,24.443-47.825,0c-10.627-24.443,32.337-46.67,57.085-35.557l-0.068-0.057
	C314.943,99.122,284.776,91.739,255.997,98.252L255.997,98.252z"/>
<path style="fill:#A04E38;" d="M271.942,200.564c4.559,2.168,8.885,3.699,12.988,4.655c-9.554,2.508-20.905,1.7-34.242-4.655
	c-39.514-18.832-38.791-82.365,5.314-102.314c10.415-2.359,21.011-2.891,31.363-1.711c-3.38,0.383-6.749,0.956-10.107,1.711
	C233.15,118.199,232.428,181.731,271.942,200.564z"/>
<g>
	<ellipse style="fill:#FCB8D2;" cx="366.982" cy="312.087" rx="24.357" ry="14.815"/>
	<path style="fill:#FCB8D2;" d="M169.363,312.091c0,8.184-10.904,14.815-24.349,14.815c-3.358,0-6.557-0.414-9.459-1.169
		c-8.757-2.232-14.9-7.503-14.9-13.646c0-4.985,4.049-9.406,10.266-12.083c3.974-1.721,8.843-2.732,14.093-2.732
		C158.459,297.276,169.363,303.908,169.363,312.091z"/>
</g>
<path style="fill:#EF9BBE;" d="M135.556,325.737c-8.757-2.232-14.9-7.503-14.9-13.646c0-4.985,4.049-9.406,10.266-12.083
	C131.943,309.041,133.494,317.618,135.556,325.737z"/>
<path style="fill:#F4B298;" d="M271.107,397.614c-9.879,2.789-20.342,2.789-30.222,0c-2.619-0.74-5.366,0.658-6.327,3.203
	c-0.012,0.033-0.025,0.067-0.037,0.1c-1.083,2.866,0.492,6.081,3.44,6.915c11.791,3.336,24.28,3.336,36.071,0
	c2.948-0.835,4.523-4.049,3.44-6.915c-0.012-0.033-0.025-0.067-0.037-0.1C276.473,398.27,273.727,396.874,271.107,397.614z"/>
<path style="fill:#FF80B0;" d="M230.004,100.789c-11.073,32.646-39.577,54.646-71.796,58.829c-3.705,0.489-7.462,0.739-11.25,0.739
	c-8.107,0-16.328-1.134-24.487-3.497l-0.781-9.137l-4.974-58.257L109.068,0l42.106,35.091l27.411,22.843L230.004,100.789z"/>
<path style="fill:#F567A7;" d="M158.208,159.618c-3.705,0.489-7.462,0.739-11.25,0.739c-8.107,0-16.328-1.134-24.487-3.497
	l-0.781-9.137l-4.974-58.257L109.068,0L158.208,159.618z"/>
<polygon style="fill:#FFC25F;" points="178.584,57.934 143.805,112.83 121.691,147.723 116.717,89.467 130.11,68.341 
	151.173,35.091 "/>
<polygon style="fill:#EDAC4F;" points="143.805,112.83 121.691,147.723 116.717,89.467 130.11,68.341 "/>
<g>
	<path style="fill:#FFC25F;" d="M423.849,60.304l4.25,8.612c1.271,2.574,3.726,4.357,6.566,4.77l9.503,1.381
		c7.152,1.04,10.008,9.829,4.833,14.874l-6.877,6.703c-2.055,2.003-2.993,4.89-2.508,7.719l1.623,9.465
		c1.222,7.123-6.255,12.556-12.652,9.192l-8.5-4.469c-2.54-1.335-5.575-1.335-8.116,0l-8.5,4.469
		c-6.397,3.363-13.874-2.069-12.652-9.192l1.623-9.465c0.485-2.829-0.453-5.715-2.508-7.719l-6.877-6.703
		c-5.175-5.045-2.32-13.835,4.833-14.874l9.503-1.381c2.84-0.413,5.296-2.197,6.566-4.77l4.25-8.612
		C411.408,53.822,420.65,53.822,423.849,60.304z"/>
	<path style="fill:#FFC25F;" d="M60.654,133.151l4.25,8.612c1.271,2.574,3.726,4.357,6.566,4.77l9.503,1.381
		c7.153,1.04,10.008,9.829,4.833,14.874l-6.877,6.703c-2.055,2.003-2.993,4.89-2.508,7.719l1.623,9.465
		c1.222,7.123-6.255,12.556-12.652,9.192l-8.5-4.469c-2.54-1.335-5.575-1.335-8.116,0l-8.5,4.469
		c-6.397,3.363-13.874-2.069-12.652-9.192l1.623-9.465c0.485-2.829-0.453-5.715-2.508-7.719l-6.877-6.703
		c-5.175-5.045-2.32-13.835,4.833-14.874l9.503-1.381c2.84-0.413,5.296-2.197,6.566-4.77l4.25-8.612
		C48.213,126.67,57.455,126.67,60.654,133.151z"/>
</g>
<g>
</g>
<g>
</g>
<g>
</g>
<g>
</g>
<g>
</g>
<g>
</g>
<g>
</g>
<g>
</g>
<g>
</g>
<g>
</g>
<g>
</g>
<g>
</g>
<g>
</g>
<g>
</g>
<g>
</g>
</svg>
